# Blender v2.79 (sub 0) OBJ File: ''
# www.blender.org
mtllib pyramid.mtl
o Cone
v 0.000000 -0.500000 0.000000
v 0.000000 0.500000 0.000000
v -0.707107 -0.500000 -0.707107
v 0.707107 -0.500000 -0.707107
v 0.707107 -0.500000 0.707107
v -0.707107 -0.500000 0.707107
vn 0.0000 -1.0000 0.0000
vn 0.0000 0.5774 -0.8165
vn 0.8165 0.5774 0.0000
vn -0.0000 0.5774 0.8165
vn -0.8165 0.5774 0.0000
usemtl None
s off
f 1//1 3//1 4//1
f 3//2 2//2 4//2
f 1//1 4//1 5//1
f 4//3 2//3 5//3
f 1//1 5//1 6//1
f 5//4 2//4 6//4
f 1//1 6//1 3//1
f 6//5 2//5 3//5
